<svg xmlns="http://www.w3.org/2000/svg" width="92" height="26"><path d="M92 15c0 6.05-4.95 11-11 11H11C4.95 26 0 21.05 0 15v-4C0 4.95 4.95 0 11 0h70c6.05 0 11 4.95 11 11v4z" fill="#F93"/><linearGradient id="a" gradientUnits="userSpaceOnUse" x1="46" y1="25" x2="46" y2="1"><stop offset="0" stop-color="#FFEFD2"/><stop offset=".23" stop-color="#FFB23C"/></linearGradient><path d="M91 14.5C91 20.275 86.275 25 80.5 25h-69C5.725 25 1 20.275 1 14.5v-3C1 5.725 5.725 1 11.5 1h69C86.275 1 91 5.725 91 11.5v3z" fill="url(#a)"/><linearGradient id="b" gradientUnits="userSpaceOnUse" x1="46" y1="15.0016" x2="46" y2="1.0016"><stop offset="0" stop-color="#FEDE9E"/><stop offset="1" stop-color="#FFF"/></linearGradient><path d="M81 15.002c4.2 0 7.866-2.389 9.718-5.872-1.084-4.641-5.259-8.128-10.218-8.128h-69c-4.959 0-9.134 3.487-10.218 8.128C3.134 12.613 6.8 15.002 11 15.002h70z" fill="url(#b)"/><g fill="#036"><path d="M20.977 17.939l2.304-11.002h2.965c.825 0 1.354.012 1.583.037.456.045.862.138 1.22.278s.684.336.976.589c.293.252.546.557.758.912.213.355.377.764.492 1.227s.173.969.173 1.52c0 1.186-.227 2.237-.68 3.156-.453.918-1.021 1.647-1.707 2.188-.525.42-1.204.73-2.034.931-.471.11-1.193.165-2.169.165h-3.881zm2.634-1.771h1.148c.831 0 1.433-.051 1.805-.154.373-.103.715-.294 1.024-.574.445-.405.821-.946 1.126-1.621.306-.675.458-1.471.458-2.387 0-.78-.126-1.367-.379-1.76s-.564-.654-.935-.784c-.26-.09-.723-.135-1.389-.135h-1.313l-1.545 7.415zM32.201 14.63c0-1.476.416-2.653 1.249-3.531.834-.878 1.928-1.317 3.284-1.317 1.176 0 2.094.324 2.754.972s.99 1.52.99 2.616c0 1.291-.412 2.406-1.238 3.347-.825.94-1.931 1.411-3.316 1.411-.751 0-1.416-.15-1.997-.45-.58-.3-1.013-.726-1.298-1.276s-.428-1.142-.428-1.772zm6.139-1.539c0-.51-.148-.919-.446-1.227s-.682-.461-1.152-.461c-.465 0-.878.144-1.238.432-.36.288-.641.705-.84 1.253-.2.548-.301 1.052-.301 1.512 0 .57.155 1.023.466 1.358.31.335.7.503 1.171.503.59 0 1.085-.252 1.485-.758.57-.716.855-1.586.855-2.612zM42.833 9.969h2.041l-.21 1.036c.511-.44.987-.754 1.43-.942.443-.188.909-.281 1.399-.281.655 0 1.172.188 1.55.563.378.375.567.873.567 1.493 0 .28-.083.811-.248 1.591l-.938 4.51H46.27l.945-4.525c.14-.675.21-1.078.21-1.208 0-.275-.081-.491-.244-.649-.162-.158-.389-.236-.679-.236-.315 0-.665.132-1.051.397-.386.266-.688.616-.908 1.051-.16.311-.34.943-.54 1.899l-.683 3.272h-2.154l1.667-7.971zM53.427 12.228l-2.102-.18c.24-.71.659-1.266 1.257-1.667.598-.4 1.39-.6 2.375-.6 1.026 0 1.784.206 2.274.619.49.413.735.917.735 1.512 0 .24-.021.495-.063.766-.043.27-.191.98-.447 2.131-.21.951-.314 1.616-.314 1.996 0 .34.06.718.18 1.133h-2.094c-.085-.29-.138-.59-.157-.9-.315.35-.679.619-1.089.807s-.823.281-1.238.281c-.66 0-1.206-.216-1.636-.649-.431-.433-.646-.989-.646-1.67 0-.76.236-1.368.709-1.824.473-.455 1.317-.73 2.533-.826 1.025-.085 1.711-.188 2.057-.308.09-.3.135-.541.135-.72 0-.23-.093-.423-.277-.578-.186-.155-.461-.232-.826-.232-.385 0-.689.079-.911.236-.224.159-.376.383-.455.673zm2.048 1.996c-.131.035-.303.067-.519.098-1.08.13-1.786.32-2.116.57-.235.18-.353.423-.353.728 0 .25.09.461.271.634.18.173.417.259.713.259.325 0 .631-.079.919-.236.288-.158.503-.36.646-.608.143-.248.269-.634.379-1.16l.06-.285zM59.337 11.568l.331-1.599h1.051l.263-1.276 2.469-1.486-.578 2.762h1.313l-.33 1.599h-1.321l-.697 3.34c-.126.605-.188.95-.188 1.036 0 .165.053.294.158.386.104.093.295.139.57.139.095 0 .333-.017.713-.052l-.338 1.599c-.37.075-.75.112-1.141.112-.761 0-1.313-.146-1.658-.439-.346-.292-.519-.699-.519-1.22 0-.245.093-.81.278-1.696l.668-3.205h-1.044zM71.536 14.622h-5.403c-.005.085-.007.15-.007.195 0 .53.15.958.454 1.283.302.326.671.488 1.106.488.716 0 1.273-.37 1.674-1.11l1.929.323c-.375.775-.877 1.357-1.505 1.745s-1.332.582-2.112.582c-1.071 0-1.941-.339-2.612-1.017-.67-.678-1.005-1.575-1.005-2.691 0-1.09.302-2.061.907-2.912.826-1.151 2.004-1.726 3.535-1.726.976 0 1.751.301 2.326.904s.863 1.447.863 2.533c0 .52-.049.988-.15 1.403zm-1.815-1.313c.005-.095.007-.167.007-.218 0-.59-.132-1.033-.397-1.329-.266-.295-.62-.442-1.065-.442s-.845.167-1.197.502c-.353.335-.592.831-.717 1.486h3.369z"/></g></svg>